<?xml version="1.0" encoding="utf-8"?>
<!-- Generator: Adobe Illustrator 28.0.0, SVG Export Plug-In . SVG Version: 6.00 Build 0)  -->
<svg version="1.1" id="Layer_1" xmlns="http://www.w3.org/2000/svg" xmlns:xlink="http://www.w3.org/1999/xlink" x="0px" y="0px"
	 viewBox="0 0 200 200" style="enable-background:new 0 0 200 200;" xml:space="preserve">
<style type="text/css">
	.st0{fill:#08816F;}
	.st1{fill:none;stroke:#FFFFFF;stroke-width:4;stroke-miterlimit:10;}
</style>
<g id="Layer_7">
	<circle class="st0" cx="100" cy="100" r="100"/>
	<circle class="st1" cx="100" cy="126" r="17.4"/>
	<path class="st1" d="M64.4,169c0-7.8,6.4-14.2,14.2-14.2h42.8c7.8,0,14.2,6.4,14.2,14.2"/>
	<circle class="st1" cx="153.4" cy="110.4" r="17.4"/>
	<path class="st1" d="M117.8,153.4c0-7.8,6.4-14.2,14.2-14.2h42.8"/>
	<circle class="st1" cx="43" cy="110.4" r="17.4"/>
	<path class="st1" d="M21.6,139.2h42.8c7.8,0,14.2,6.4,14.2,14.2"/>
	<path class="st1" d="M147.8,72.6H52.2c-5,0-9-4-9-9v-26c0-4.9,4-9,9-9h95.5c4.9,0,9,4.1,9,9v26C156.8,68.6,152.7,72.6,147.8,72.6z"
		/>
	<polyline class="st1" points="59.8,71.9 59.8,86.3 72.5,73.6 	"/>
	<polyline class="st1" points="140.2,71.9 140.2,86.3 127.5,73.6 	"/>
	<polyline class="st1" points="106.6,73.5 100.1,89.9 93.4,73.6 	"/>
</g>
</svg>
